<svg xmlns="http://www.w3.org/2000/svg" viewBox="0 0 240 200">
  <g transform="translate(90,20)">
    <text x="20" y="15" font-size="12" fill="#333" font-family="Arial">C</text>
    <line x1="18" y1="5" x2="18" y2="-5" stroke="#333" stroke-width="2"/>
    <line x1="21" y1="5" x2="21" y2="-5" stroke="#333" stroke-width="2"/>
    <text x="14" y="-10" font-size="12" fill="#333" font-family="Arial">O</text>
    <line x1="32" y1="10" x2="48" y2="10" stroke="#333" stroke-width="2"/>
    <text x="50" y="14" font-size="12" fill="#333" font-family="Arial">O</text>
    <line x1="62" y1="10" x2="76" y2="10" stroke="#333" stroke-width="2"/>
    <text x="75" y="7" font-size="8" fill="#333" font-family="Arial">~</text>
    <circle cx="90" cy="10" r="12" fill="#E65100"/>
    <text x="90" y="14" text-anchor="middle" font-size="11" fill="white" font-family="Arial" font-weight="bold">P</text>
    <line x1="25" y1="20" x2="25" y2="50" stroke="#333" stroke-width="2.5"/>
    <text x="10" y="65" font-size="12" fill="#333" font-family="Arial">CHOH</text>
    <line x1="25" y1="70" x2="25" y2="100" stroke="#333" stroke-width="2.5"/>
    <text x="5" y="115" font-size="12" fill="#333" font-family="Arial">CH&#x2082;</text>
    <line x1="37" y1="110" x2="53" y2="110" stroke="#333" stroke-width="2"/>
    <text x="55" y="114" font-size="12" fill="#333" font-family="Arial">O</text>
    <line x1="67" y1="110" x2="80" y2="110" stroke="#333" stroke-width="2"/>
    <circle cx="93" cy="110" r="12" fill="#E65100"/>
    <text x="93" y="114" text-anchor="middle" font-size="11" fill="white" font-family="Arial" font-weight="bold">P</text>
  </g>
  <text x="120" y="190" text-anchor="middle" font-family="'Noto Sans KR', Arial, sans-serif" font-size="13" fill="#555">1,3-BPG</text>
</svg>